<?xml version="1.0" encoding="UTF-8" standalone="no"?>
<svg
   xmlns:dc="http://purl.org/dc/elements/1.1/"
   xmlns:cc="http://creativecommons.org/ns#"
   xmlns:rdf="http://www.w3.org/1999/02/22-rdf-syntax-ns#"
   xmlns:svg="http://www.w3.org/2000/svg"
   xmlns="http://www.w3.org/2000/svg"
   xmlns:sodipodi="http://sodipodi.sourceforge.net/DTD/sodipodi-0.dtd"
   xmlns:inkscape="http://www.inkscape.org/namespaces/inkscape"
   width="162.50615"
   height="162.50615"
   version="1.1"
   x="0px"
   y="0px"
   viewBox="0 0 52.001968 52.001968"
   enable-background="new 0 0 64 64"
   xml:space="preserve"
   id="svg4372"
   inkscape:version="0.91 r13725"
   sodipodi:docname="favicon.svg"
   style="fill:#000000"><metadata
     id="metadata4388"><rdf:RDF><cc:Work
         rdf:about=""><dc:format>image/svg+xml</dc:format><dc:type
           rdf:resource="http://purl.org/dc/dcmitype/StillImage" /><dc:title></dc:title></cc:Work></rdf:RDF></metadata><defs
     id="defs4386" /><sodipodi:namedview
     pagecolor="#ffffff"
     bordercolor="#666666"
     borderopacity="1"
     objecttolerance="10"
     gridtolerance="10"
     guidetolerance="10"
     inkscape:pageopacity="0"
     inkscape:pageshadow="2"
     inkscape:window-width="741"
     inkscape:window-height="480"
     id="namedview4384"
     showgrid="false"
     fit-margin-top="0"
     fit-margin-left="0"
     fit-margin-right="0"
     fit-margin-bottom="0"
     inkscape:zoom="0.834386"
     inkscape:cx="133.38481"
     inkscape:cy="90.104445"
     inkscape:window-x="65"
     inkscape:window-y="24"
     inkscape:window-maximized="0"
     inkscape:current-layer="svg4372" /><g
     id="g4374"
     style="fill:#c0178c"
     transform="matrix(0.94770213,0,0,0.94770213,-4.3259581,-4.3256027)"><g
       id="g4376"
       style="fill:#c0178c"><path
         d="m 7.105,25.789 24,12 C 31.387,37.93 31.693,38 32,38 c 0.307,0 0.613,-0.07 0.895,-0.211 l 24,-12 C 57.572,25.45 58,24.757 58,24 58,23.243 57.572,22.55 56.895,22.211 l -24,-12 c -0.563,-0.281 -1.226,-0.281 -1.789,0 l -24,12 C 6.428,22.55 6,23.243 6,24 c 0,0.757 0.428,1.45 1.105,1.789 z"
         id="path4378"
         style="fill:#c0178c"
         inkscape:connector-curvature="0" /><path
         d="M 55.105,30.211 32,41.764 8.895,30.211 C 7.908,29.718 6.706,30.118 6.211,31.106 5.717,32.094 6.118,33.295 7.106,33.79 l 24,12 C 31.387,45.93 31.693,46 32,46 c 0.307,0 0.613,-0.07 0.895,-0.211 l 24,-12 c 0.988,-0.494 1.389,-1.695 0.895,-2.684 -0.495,-0.986 -1.694,-1.39 -2.685,-0.894 z"
         id="path4380"
         style="fill:#c0178c"
         inkscape:connector-curvature="0" /><path
         d="M 55.105,38.211 32,49.764 8.895,38.211 C 7.908,37.718 6.706,38.117 6.211,39.106 5.717,40.094 6.118,41.295 7.106,41.79 l 24,12 C 31.387,53.93 31.693,54 32,54 c 0.307,0 0.613,-0.07 0.895,-0.211 l 24,-12 c 0.988,-0.494 1.389,-1.695 0.895,-2.684 -0.495,-0.987 -1.694,-1.389 -2.685,-0.894 z"
         id="path4382"
         style="fill:#c0178c"
         inkscape:connector-curvature="0" /></g></g></svg>